<svg width="20" height="20" viewBox="0 0 20 20" fill="none" xmlns="http://www.w3.org/2000/svg">
<path d="M6.83744 10.1094C6.83744 8.29994 8.30479 6.83269 10.1154 6.83269C11.9259 6.83269 13.3941 8.29994 13.3941 10.1094C13.3941 11.9189 11.9259 13.3862 10.1154 13.3862C8.30479 13.3862 6.83744 11.9189 6.83744 10.1094ZM5.06503 10.1094C5.06503 12.897 7.32605 15.1567 10.1154 15.1567C12.9046 15.1567 15.1657 12.897 15.1657 10.1094C15.1657 7.3218 12.9046 5.06213 10.1154 5.06213C7.32605 5.06213 5.06503 7.3218 5.06503 10.1094ZM14.1854 4.86201C14.1853 5.09529 14.2544 5.32337 14.384 5.5174C14.5136 5.71142 14.6979 5.86268 14.9135 5.95204C15.1291 6.0414 15.3664 6.06486 15.5954 6.01944C15.8244 5.97401 16.0347 5.86176 16.1998 5.69686C16.365 5.53197 16.4774 5.32184 16.5231 5.09305C16.5687 4.86427 16.5454 4.62709 16.4562 4.41153C16.3669 4.19596 16.2157 4.01168 16.0217 3.88199C15.8277 3.75231 15.5995 3.68304 15.3661 3.68295H15.3656C15.0527 3.68309 14.7527 3.80735 14.5314 4.02842C14.3101 4.24949 14.1856 4.5493 14.1854 4.86201ZM6.14188 18.1103C5.18298 18.0667 4.66178 17.9071 4.31542 17.7722C3.85623 17.5935 3.5286 17.3808 3.18412 17.037C2.83965 16.6932 2.62642 16.3661 2.44844 15.9071C2.31342 15.5611 2.1537 15.0401 2.11011 14.0818C2.06243 13.0457 2.05291 12.7344 2.05291 10.1095C2.05291 7.48457 2.06321 7.1742 2.11011 6.13724C2.15378 5.17891 2.31468 4.65889 2.44844 4.31187C2.62721 3.85296 2.84012 3.52552 3.18412 3.18125C3.52813 2.83699 3.85544 2.62388 4.31542 2.44601C4.66163 2.31107 5.18298 2.15144 6.14188 2.10788C7.1786 2.06023 7.49003 2.05071 10.1154 2.05071C12.7407 2.05071 13.0524 2.06101 14.09 2.10788C15.0489 2.15152 15.5692 2.31233 15.9165 2.44601C16.3757 2.62388 16.7033 2.83746 17.0478 3.18125C17.3922 3.52505 17.6047 3.85296 17.7834 4.31187C17.9185 4.65787 18.0782 5.17891 18.1218 6.13724C18.1695 7.1742 18.179 7.48457 18.179 10.1095C18.179 12.7344 18.1695 13.0448 18.1218 14.0818C18.0781 15.0401 17.9176 15.561 17.7834 15.9071C17.6047 16.3661 17.3918 16.6935 17.0478 17.037C16.7038 17.3804 16.3757 17.5935 15.9165 17.7722C15.5703 17.9071 15.0489 18.0668 14.09 18.1103C13.0533 18.158 12.7419 18.1675 10.1154 18.1675C7.48885 18.1675 7.17829 18.158 6.14188 18.1103ZM6.06045 0.339526C5.01342 0.387179 4.29796 0.5531 3.67314 0.796083C3.02605 1.04701 2.47826 1.38365 1.93087 1.92985C1.38347 2.47605 1.0475 3.02437 0.796423 3.67107C0.553294 4.29591 0.387274 5.01055 0.339592 6.05695C0.291124 7.105 0.280029 7.44007 0.280029 10.1094C0.280029 12.7788 0.291124 13.1138 0.339592 14.1619C0.387274 15.2084 0.553294 15.9229 0.796423 16.5478C1.0475 17.1941 1.38355 17.743 1.93087 18.289C2.47818 18.835 3.02605 19.1711 3.67314 19.4228C4.29914 19.6657 5.01342 19.8317 6.06045 19.8793C7.10968 19.927 7.44439 19.9388 10.1154 19.9388C12.7863 19.9388 13.1216 19.9278 14.1703 19.8793C15.2174 19.8317 15.9324 19.6657 16.5576 19.4228C17.2043 19.1711 17.7524 18.8352 18.2998 18.289C18.8472 17.7428 19.1825 17.1941 19.4343 16.5478C19.6774 15.9229 19.8442 15.2083 19.8911 14.1619C19.9388 13.1131 19.9499 12.7788 19.9499 10.1094C19.9499 7.44007 19.9388 7.105 19.8911 6.05695C19.8434 5.01047 19.6774 4.29552 19.4343 3.67107C19.1825 3.02477 18.8464 2.47691 18.2998 1.92985C17.7533 1.38278 17.2043 1.04701 16.5584 0.796083C15.9324 0.5531 15.2173 0.386392 14.171 0.339526C13.1224 0.291873 12.7871 0.279999 10.1161 0.279999C7.44518 0.279999 7.10968 0.291086 6.06045 0.339526Z" fill="white"/>
</svg>
