<svg width="36" height="61" viewBox="0 0 36 61" fill="none" xmlns="http://www.w3.org/2000/svg">
<path d="M33.4291 0.790382C33.7279 0.693402 34.4107 0.480048 34.9465 0.310334C35.4823 0.14062 35.9423 0.00484897 35.966 0C35.9944 0 36.0086 0.0290938 35.9944 0.0630366C35.9802 0.0921304 35.8427 0.295787 35.6909 0.509142C35.5392 0.722496 35.2168 1.20254 34.9749 1.57591C34.7331 1.94928 34.4391 2.40994 34.3206 2.5942C34.2068 2.77846 33.9981 3.14213 33.8606 3.39428C33.7231 3.64642 33.5904 3.88887 33.5667 3.92766C33.5429 3.96645 33.4291 4.17496 33.3153 4.38831C33.1968 4.60167 32.9502 5.09626 32.77 5.49388C32.5851 5.88665 32.2959 6.55095 32.1299 6.97281C31.9592 7.38983 31.7411 7.98625 31.6368 8.29173C31.5325 8.59722 31.3618 9.1306 31.2527 9.47973C31.1484 9.82886 30.9777 10.4592 30.8734 10.8859C30.7738 11.3126 30.6315 11.9333 30.5651 12.2679C30.4988 12.6025 30.3897 13.1892 30.3281 13.5771C30.2617 13.965 30.1858 14.513 30.1621 14.8039C30.1336 15.09 30.1005 15.3518 30.0862 15.3858C30.0767 15.4149 30.0341 15.7931 29.9914 16.2198C29.9535 16.6465 29.8871 17.4757 29.8491 18.0624C29.8065 18.6491 29.7211 20.3317 29.6595 21.7961C29.5931 23.2605 29.5172 24.8122 29.4935 25.2389C29.4651 25.6656 29.4129 26.4172 29.3702 26.9118C29.3323 27.4064 29.2707 28.1046 29.2327 28.4634C29.19 28.8223 29.1379 29.3023 29.1094 29.5302C29.081 29.7581 28.9862 30.3885 28.9008 30.9364C28.8107 31.4843 28.6732 32.2456 28.5973 32.6335C28.5215 33.0215 28.3982 33.5791 28.3318 33.87C28.2654 34.161 28.0947 34.8156 27.9525 35.3247C27.8149 35.8339 27.5779 36.6145 27.4261 37.0704C27.2791 37.5262 27.0231 38.2535 26.8524 38.6948C26.6864 39.136 26.4636 39.7033 26.3545 39.9555C26.2502 40.2076 26.0652 40.6343 25.942 40.901C25.8234 41.1677 25.52 41.7981 25.2686 42.3072C25.0173 42.8164 24.6901 43.4564 24.5384 43.7377C24.3867 44.0189 24.0405 44.6299 23.7655 45.0954C23.4905 45.5609 22.9784 46.3901 22.6228 46.938C22.2671 47.4859 21.7977 48.1939 21.5748 48.5139C21.352 48.8339 21.1386 49.1443 21.1007 49.1976C21.0627 49.2558 20.783 49.6292 20.4842 50.0219C20.1855 50.4196 19.6497 51.1178 19.2893 51.5688C18.929 52.0197 18.488 52.5725 18.3125 52.7859C18.1371 53.0041 17.8763 53.3192 17.734 53.4841C17.5918 53.6538 17.3452 53.9351 17.1887 54.1096C17.0323 54.289 16.7003 54.6576 16.4538 54.9388C16.2072 55.2152 15.7994 55.6613 15.5529 55.928C15.3063 56.1995 14.4623 57.0723 13.6799 57.8724C12.8975 58.6725 12.0203 59.5599 11.7358 59.8411C11.4597 60.114 11.0809 60.4737 10.5734 60.9556L10.5266 61L10.2279 60.9903C9.9671 60.9758 9.93391 60.9661 9.93865 60.8788C9.94339 60.8254 9.99081 60.5103 10.0477 60.1757C10.1046 59.8411 10.2706 58.9683 10.4128 58.2361C10.5551 57.5039 10.7685 56.442 10.887 55.8843C11.0055 55.3267 11.2331 54.289 11.3849 53.5811C11.5414 52.8731 11.8828 51.3894 12.1388 50.2838C12.3996 49.1782 12.7837 47.5635 12.9923 46.6955C13.1962 45.8276 13.3906 45.0518 13.4143 44.9742C13.438 44.8966 13.5803 44.339 13.7225 43.7377C13.8695 43.1364 14.007 42.5788 14.0355 42.5012C14.0592 42.4236 14.2773 41.6041 14.5144 40.6828C14.7515 39.7615 15.0076 38.782 15.0787 38.5008C15.1498 38.2196 15.2873 37.6959 15.3821 37.337C15.477 36.9782 15.6524 36.3236 15.7757 35.8824C15.8943 35.4411 16.212 34.287 16.487 33.3124C16.7572 32.3378 16.9754 31.5134 16.9754 31.4843C16.9754 31.4504 16.9279 31.4116 16.8663 31.4019C16.8094 31.3922 16.4633 31.3098 16.0981 31.2273C15.733 31.1401 15.1877 30.9849 14.889 30.8782C14.5903 30.7715 14.1398 30.5873 13.8932 30.4709C13.6467 30.3497 13.2531 30.1412 13.016 30.0054C12.7789 29.8696 12.4186 29.6272 12.2099 29.4623C12.0013 29.3023 11.6836 29.0356 11.4987 28.8707C11.3138 28.7107 10.9629 28.3277 10.7116 28.0222C10.4602 27.7167 10.1188 27.2415 9.95762 26.9603C9.79166 26.679 9.58776 26.2862 9.49767 26.0874C9.40758 25.8886 9.26533 25.5056 9.17523 25.2389C9.08514 24.9722 8.96186 24.5115 8.89547 24.2206C8.83383 23.9248 8.75322 23.4496 8.72477 23.1538C8.68684 22.8241 8.67735 22.2471 8.69158 21.6506C8.7058 20.9669 8.74374 20.5111 8.81486 20.099C8.87176 19.7789 8.95711 19.3425 9.00927 19.1292C9.06143 18.9158 9.18472 18.4697 9.28903 18.1351C9.39335 17.8006 9.61621 17.2235 9.78217 16.8502C9.94813 16.4768 10.2089 15.9531 10.3607 15.6864C10.5124 15.4197 10.7305 15.0512 10.8491 14.8621C10.9676 14.673 11.2806 14.2366 11.5414 13.8923C11.7974 13.548 12.1198 13.1407 12.2479 12.9952C12.3806 12.8498 12.7126 12.4909 12.9923 12.1952C13.2673 11.8994 13.7083 11.463 13.9644 11.2157C14.2252 10.9732 14.5998 10.6338 14.7942 10.4641C14.9886 10.2944 15.3964 9.95978 15.6951 9.71733C15.9938 9.47973 16.4633 9.11606 16.7383 8.9124C17.0133 8.70874 17.5728 8.32083 17.9806 8.04444C18.3884 7.76804 18.9147 7.41892 19.1423 7.2686C19.3699 7.11828 19.6734 6.93402 19.8109 6.85644C19.9532 6.77886 20.1239 6.68188 20.195 6.64308C20.2614 6.60429 20.47 6.48307 20.6502 6.37154C20.8351 6.26002 21.3662 5.96423 21.8356 5.70723C22.3051 5.45509 23.0827 5.04777 23.5664 4.81017C24.05 4.56773 24.7755 4.2186 25.1785 4.03434C25.5816 3.85008 26.0937 3.61733 26.3166 3.52035C26.5394 3.41852 26.786 3.307 26.8619 3.27305C26.9377 3.23911 27.4309 3.03545 27.9525 2.8221C28.474 2.60874 29.3276 2.26932 29.8491 2.07051C30.3707 1.8717 31.1057 1.60016 31.485 1.46439C31.8644 1.32862 32.3338 1.16375 32.5282 1.09102C32.7226 1.02313 33.1304 0.887361 33.4291 0.790382Z" fill="#FEFEFE"/>
<path d="M17.5681 5.11566C17.9047 4.98959 18.2793 4.84897 18.3979 4.80048C18.5164 4.75199 18.635 4.70835 18.6587 4.70835C18.6824 4.7035 18.5923 4.77623 18.4595 4.86351C18.322 4.94595 17.9901 5.1593 17.7246 5.32901C17.4543 5.50358 16.9374 5.84785 16.5723 6.1C16.2072 6.357 15.8421 6.60914 15.7662 6.66248C15.6904 6.71582 15.2636 7.0407 14.8179 7.37528C14.3722 7.71471 13.7842 8.18506 13.5092 8.41781C13.2341 8.65541 12.7837 9.05787 12.5134 9.31002C12.2431 9.56216 11.8306 9.96948 11.5983 10.2071C11.3707 10.4495 10.9723 10.8714 10.721 11.1526C10.4697 11.4339 10.0477 11.9479 9.78692 12.2921C9.52138 12.6364 9.11833 13.2086 8.89547 13.5529C8.66787 13.8971 8.47346 14.2317 8.45923 14.2948C8.44975 14.3529 8.4213 14.4014 8.39285 14.4014C8.3644 14.4014 8.15576 14.7893 7.92816 15.2645C7.70056 15.7349 7.39235 16.4525 7.25009 16.8502C7.1031 17.2526 6.94662 17.7181 6.90395 17.8927C6.85653 18.0672 6.79015 18.3194 6.75221 18.4503C6.71428 18.5861 6.63367 18.9643 6.56729 19.2989C6.50564 19.6335 6.42029 20.225 6.37762 20.6227C6.33968 21.0154 6.30649 21.6021 6.30649 21.9319C6.30649 22.2568 6.3302 22.7756 6.35391 23.0811C6.38236 23.3866 6.43926 23.8472 6.47719 24.0994C6.51987 24.3515 6.60996 24.8025 6.68583 25.0934C6.7617 25.3843 6.86601 25.7577 6.91343 25.9177C6.96559 26.0777 7.07939 26.3929 7.17423 26.6208C7.26432 26.8487 7.43976 27.2269 7.55831 27.4694C7.68159 27.7118 7.85229 28.027 7.9329 28.1725C8.01825 28.318 8.19844 28.6041 8.33121 28.8029C8.46872 29.0017 8.75322 29.375 8.97134 29.6272C9.18946 29.8793 9.55931 30.2721 9.79166 30.5C10.0287 30.7279 10.3986 31.0576 10.6215 31.237C10.8443 31.4116 11.2142 31.6831 11.4513 31.8335C11.6883 31.9886 12.1673 32.2602 12.5181 32.4396C12.869 32.619 13.2863 32.813 13.4428 32.8711C13.5993 32.9342 13.8079 33.0166 13.9075 33.0603C14.007 33.1087 14.0829 33.1475 14.0829 33.1572C14.0829 33.1621 13.8506 34.0252 13.5661 35.0726C13.2816 36.1151 12.9496 37.3564 12.8311 37.8219C12.7078 38.2874 12.4802 39.1506 12.3285 39.7373C12.1767 40.324 11.9349 41.2647 11.7879 41.8223C11.6457 42.38 11.2711 43.8783 10.9629 45.1439C10.6499 46.4095 10.2848 47.9078 10.152 48.4654C10.024 49.0231 9.81537 49.8959 9.69682 50.405C9.57828 50.9142 9.308 52.1021 9.09937 53.0477C8.89073 53.9932 8.67735 54.9776 8.62519 55.2297C8.55881 55.5304 8.51139 55.6661 8.48768 55.6176C8.46397 55.5789 8.35017 55.0212 8.23163 54.3812C8.11309 53.7411 7.97558 52.9653 7.92342 52.6598C7.86652 52.3543 7.78117 51.85 7.72901 51.5445C7.67685 51.239 7.55831 50.4632 7.46821 49.8231C7.37812 49.1831 7.25009 48.223 7.18845 47.6896C7.12207 47.1562 7.02723 46.2494 6.97507 45.6773C6.91817 45.1051 6.84705 44.1983 6.80437 43.6649C6.76644 43.1316 6.71428 42.1909 6.68583 41.5799C6.66212 40.9689 6.62419 39.81 6.60996 39.0099C6.59099 38.1565 6.60048 36.8134 6.63367 35.7611C6.66686 34.7719 6.71902 33.5403 6.75695 33.0215C6.79015 32.5026 6.79963 32.042 6.78066 32.0032C6.7617 31.9644 6.60522 31.882 6.42978 31.8238C6.25907 31.7607 5.87499 31.6007 5.58101 31.4698C5.29176 31.334 4.84604 31.1013 4.59947 30.951C4.3529 30.8006 3.93563 30.5145 3.67958 30.3109C3.41878 30.1072 3.06789 29.8018 2.89719 29.6272C2.72175 29.4526 2.45621 29.1568 2.29974 28.9677C2.14326 28.7786 1.95359 28.541 1.88246 28.4343C1.8066 28.3325 1.63589 28.0707 1.50313 27.8573C1.36562 27.644 1.1475 27.2269 1.01473 26.936C0.877219 26.6402 0.682808 26.1408 0.573748 25.8207C0.469431 25.5007 0.327179 24.9964 0.265536 24.7055C0.199152 24.4145 0.113801 23.8763 0.0758676 23.5175C0.0331921 23.1587 0 22.5574 0 22.184C0 21.8107 0.0237086 21.2773 0.0474172 20.996C0.0758676 20.7148 0.132768 20.2784 0.170702 20.0262C0.208636 19.7741 0.312954 19.2795 0.403046 18.9352C0.488397 18.5909 0.649616 18.0672 0.749192 17.7715C0.85351 17.4805 1.0005 17.0975 1.07637 16.9229C1.15224 16.7483 1.30872 16.4235 1.42252 16.1955C1.54106 15.9676 1.81134 15.5118 2.02946 15.1773C2.24758 14.8427 2.57001 14.3966 2.74072 14.1832C2.91142 13.9699 3.13902 13.6983 3.24808 13.5771C3.3524 13.4607 3.55629 13.2328 3.69854 13.0728C3.8408 12.9176 4.19168 12.5782 4.48093 12.3212C4.77017 12.0642 5.24435 11.6569 5.53833 11.4193C5.83706 11.1769 6.18795 10.9005 6.32072 10.8035C6.45823 10.7017 6.77118 10.4835 7.01775 10.3138C7.26432 10.144 7.61521 9.91129 7.80013 9.79491C7.98506 9.68339 8.23637 9.51852 8.36914 9.43124C8.49717 9.34396 8.76745 9.18879 8.96186 9.08212C9.15627 8.97544 9.4218 8.82027 9.55457 8.74269C9.6826 8.6651 10.3986 8.29173 11.143 7.91351C11.8875 7.54014 12.9117 7.04555 13.4191 6.81765L13.4961 6.7838C13.9935 6.56508 14.6255 6.2872 14.9364 6.15819C15.2636 6.01757 15.6904 5.83816 15.8848 5.76057C16.0792 5.68299 16.4016 5.55692 16.596 5.48418C16.7806 5.41054 17.1873 5.25825 17.516 5.13515L17.5681 5.11566Z" fill="#FEFEFE"/>
</svg>
